<svg xmlns="http://www.w3.org/2000/svg" width="13.465" height="13.465" viewBox="0 0 13.465 13.465">
  <g id="Grupo_139" data-name="Grupo 139" transform="translate(237.901 -84.2)">
    <path id="Caminho_279" data-name="Caminho 279" d="M-231.112,84.2a6.673,6.673,0,0,1,6.676,6.738,6.8,6.8,0,0,1-6.789,6.727,6.667,6.667,0,0,1-6.676-6.738A6.784,6.784,0,0,1-231.112,84.2Zm-.1,11.082a4.4,4.4,0,0,0,4.391-4.312,4.31,4.31,0,0,0-4.279-4.4h-.039a4.4,4.4,0,0,0-4.391,4.313,4.317,4.317,0,0,0,4.279,4.4h.039" fill="#17969d"/>
  </g>
</svg>
